<svg xmlns="http://www.w3.org/2000/svg" xmlns:xlink="http://www.w3.org/1999/xlink" contentStyleType="text/css" height="1432px" preserveAspectRatio="none" style="width:1495px;height:1432px;background:#FFFFFF;" version="1.1" viewBox="0 0 1495 1432" width="1495px" zoomAndPan="magnify"><defs/><g><!--class ModelGenerationCancelledResult--><g id="elem_ModelGenerationCancelledResult"><rect codeLine="5" fill="#FFFFFF" height="72.5625" id="ModelGenerationCancelledResult" rx="2.5" ry="2.5" style="stroke:#000000;stroke-width:1;" width="272.4795" x="890" y="727"/><ellipse cx="908.2383" cy="747.1328" fill="#FFFFFF" rx="9" ry="9" style="stroke:#000000;stroke-width:1;"/><path d="M912.3477,753.1328 L904.6289,753.1328 L904.6289,740.7422 L912.3477,740.7422 L912.3477,742.8984 L907.082,742.8984 L907.082,745.5703 L911.8477,745.5703 L911.8477,747.7266 L907.082,747.7266 L907.082,750.9766 L912.3477,750.9766 L912.3477,753.1328 Z " fill="#000000"/><text fill="#000000" font-family="Verdana" font-size="12" font-style="italic" lengthAdjust="spacing" textLength="53.6191" x="1011.0122" y="743.1387">«record»</text><text fill="#000000" font-family="Verdana" font-size="14" lengthAdjust="spacing" textLength="232.8389" x="921.4023" y="758.9639">ModelGenerationCancelledResult</text><line style="stroke:#000000;stroke-width:1;" x1="891" x2="1161.4795" y1="767.2656" y2="767.2656"/><line style="stroke:#000000;stroke-width:1;" x1="891" x2="1161.4795" y1="775.2656" y2="775.2656"/><ellipse cx="901" cy="788.9141" fill="#FFFFFF" rx="3" ry="3" style="stroke:#000000;stroke-width:1;"/><text fill="#000000" font-family="Verdana" font-size="14" lengthAdjust="spacing" textLength="248.4795" x="908" y="792.2607">ModelGenerationCancelledResult():</text></g><!--class ModelGenerationErrorResult--><g id="elem_ModelGenerationErrorResult"><rect codeLine="8" fill="#FFFFFF" height="137.75" id="ModelGenerationErrorResult" rx="2.5" ry="2.5" style="stroke:#000000;stroke-width:1;" width="324.4258" x="12" y="1122.5"/><ellipse cx="71.1128" cy="1142.6328" fill="#FFFFFF" rx="9" ry="9" style="stroke:#000000;stroke-width:1;"/><path d="M75.2222,1148.6328 L67.5034,1148.6328 L67.5034,1136.2422 L75.2222,1136.2422 L75.2222,1138.3984 L69.9565,1138.3984 L69.9565,1141.0703 L74.7222,1141.0703 L74.7222,1143.2266 L69.9565,1143.2266 L69.9565,1146.4766 L75.2222,1146.4766 L75.2222,1148.6328 Z " fill="#000000"/><text fill="#000000" font-family="Verdana" font-size="12" font-style="italic" lengthAdjust="spacing" textLength="53.6191" x="161.1533" y="1138.6387">«record»</text><text fill="#000000" font-family="Verdana" font-size="14" lengthAdjust="spacing" textLength="198.7002" x="88.6128" y="1154.4639">ModelGenerationErrorResult</text><line style="stroke:#000000;stroke-width:1;" x1="13" x2="335.4258" y1="1162.7656" y2="1162.7656"/><rect fill="none" height="6" style="stroke:#000000;stroke-width:1;" width="6" x="20" y="1173.4141"/><text fill="#000000" font-family="Verdana" font-size="14" lengthAdjust="spacing" textLength="85.3945" x="30" y="1179.7607">error: String</text><rect fill="none" height="6" style="stroke:#000000;stroke-width:1;" width="6" x="20" y="1189.7109"/><text fill="#000000" font-family="Verdana" font-size="14" lengthAdjust="spacing" textLength="75.0928" x="30" y="1196.0576">uuid: UUID</text><line style="stroke:#000000;stroke-width:1;" x1="13" x2="335.4258" y1="1203.3594" y2="1203.3594"/><ellipse cx="23" cy="1217.0078" fill="#FFFFFF" rx="3" ry="3" style="stroke:#000000;stroke-width:1;"/><text fill="#000000" font-family="Verdana" font-size="14" lengthAdjust="spacing" textLength="300.4258" x="30" y="1220.3545">ModelGenerationErrorResult(UUID, String):</text><ellipse cx="23" cy="1233.3047" fill="#FFFFFF" rx="3" ry="3" style="stroke:#000000;stroke-width:1;"/><text fill="#000000" font-family="Verdana" font-size="14" lengthAdjust="spacing" textLength="96.3184" x="30" y="1236.6514">error(): String</text><ellipse cx="23" cy="1249.6016" fill="#FFFFFF" rx="3" ry="3" style="stroke:#000000;stroke-width:1;"/><text fill="#000000" font-family="Verdana" font-size="14" lengthAdjust="spacing" textLength="86.0166" x="30" y="1252.9482">uuid(): UUID</text></g><!--class ModelGenerationManager--><g id="elem_ModelGenerationManager"><rect codeLine="15" fill="#FFFFFF" height="158.0781" id="ModelGenerationManager" rx="2.5" ry="2.5" style="stroke:#000000;stroke-width:1;" width="624.7559" x="109.5" y="254.5"/><ellipse cx="327.3774" cy="268.5" fill="#FFFFFF" rx="9" ry="9" style="stroke:#000000;stroke-width:1;"/><path d="M330.3462,274.1406 Q329.7681,274.4375 329.1274,274.5781 Q328.4868,274.7344 327.7837,274.7344 Q325.2837,274.7344 323.9556,273.0938 Q322.6431,271.4375 322.6431,268.3125 Q322.6431,265.1875 323.9556,263.5313 Q325.2837,261.875 327.7837,261.875 Q328.4868,261.875 329.1274,262.0313 Q329.7837,262.1875 330.3462,262.4844 L330.3462,265.2031 Q329.7212,264.625 329.1274,264.3594 Q328.5337,264.0781 327.9087,264.0781 Q326.5649,264.0781 325.8774,265.1563 Q325.1899,266.2188 325.1899,268.3125 Q325.1899,270.4063 325.8774,271.4844 Q326.5649,272.5469 327.9087,272.5469 Q328.5337,272.5469 329.1274,272.2813 Q329.7212,272 330.3462,271.4219 L330.3462,274.1406 Z " fill="#000000"/><text fill="#000000" font-family="Verdana" font-size="14" lengthAdjust="spacing" textLength="181.501" x="344.8774" y="273.3467">ModelGenerationManager</text><line style="stroke:#000000;stroke-width:1;" x1="110.5" x2="733.2559" y1="282.5" y2="282.5"/><rect fill="none" height="6" style="stroke:#000000;stroke-width:1;" width="6" x="117.5" y="293.1484"/><text fill="#000000" font-family="Verdana" font-size="14" lengthAdjust="spacing" textLength="127.4561" x="127.5" y="299.4951">disposed: boolean</text><rect fill="none" height="6" style="stroke:#000000;stroke-width:1;" width="6" x="117.5" y="309.4453"/><text fill="#000000" font-family="Verdana" font-size="14" lengthAdjust="spacing" textLength="128.6182" x="127.5" y="315.792">lockObject: Object</text><rect fill="none" height="6" style="stroke:#000000;stroke-width:1;" width="6" x="117.5" y="325.7422"/><text fill="#000000" font-family="Verdana" font-size="14" lengthAdjust="spacing" textLength="228.1904" x="127.5" y="332.0889">worker: ModelGenerationWorker</text><line style="stroke:#000000;stroke-width:1;" x1="110.5" x2="733.2559" y1="339.3906" y2="339.3906"/><ellipse cx="120.5" cy="353.0391" fill="#FFFFFF" rx="3" ry="3" style="stroke:#000000;stroke-width:1;"/><text fill="#000000" font-family="Verdana" font-size="14" lengthAdjust="spacing" textLength="197.1416" x="127.5" y="356.3857">ModelGenerationManager():</text><polygon fill="#FFFFFF" points="120.5,365.3359,116.5,371.3359,124.5,371.3359" style="stroke:#000000;stroke-width:1;"/><text fill="#000000" font-family="Verdana" font-size="14" lengthAdjust="spacing" textLength="600.7559" x="127.5" y="372.6826">setActiveModelGenerationWorker(ModelGenerationWorker, CancelIndicator): boolean</text><ellipse cx="120.5" cy="385.6328" fill="#FFFFFF" rx="3" ry="3" style="stroke:#000000;stroke-width:1;"/><text fill="#000000" font-family="Verdana" font-size="14" lengthAdjust="spacing" textLength="95.0674" x="127.5" y="388.9795">cancel(): void</text><ellipse cx="120.5" cy="401.9297" fill="#FFFFFF" rx="3" ry="3" style="stroke:#000000;stroke-width:1;"/><text fill="#000000" font-family="Verdana" font-size="14" lengthAdjust="spacing" textLength="103.1475" x="127.5" y="405.2764">dispose(): void</text></g><!--class ModelGenerationResult--><g id="elem_ModelGenerationResult"><rect codeLine="24" fill="#FFFFFF" height="72.5625" id="ModelGenerationResult" rx="2.5" ry="2.5" style="stroke:#000000;stroke-width:1;" width="192.0215" x="442" y="1353"/><ellipse cx="455" cy="1373.1328" fill="#FFFFFF" rx="9" ry="9" style="stroke:#000000;stroke-width:1;"/><path d="M450.9219,1368.8984 L450.9219,1366.7422 L458.3125,1366.7422 L458.3125,1368.8984 L455.8438,1368.8984 L455.8438,1376.9766 L458.3125,1376.9766 L458.3125,1379.1328 L450.9219,1379.1328 L450.9219,1376.9766 L453.3906,1376.9766 L453.3906,1368.8984 L450.9219,1368.8984 Z " fill="#000000"/><text fill="#000000" font-family="Verdana" font-size="12" font-style="italic" lengthAdjust="spacing" textLength="68.332" x="514.8447" y="1369.1387">«interface»</text><text fill="#000000" font-family="Verdana" font-size="14" font-style="italic" lengthAdjust="spacing" textLength="164.0215" x="467" y="1384.9639">ModelGenerationResult</text><line style="stroke:#000000;stroke-width:1;" x1="443" x2="633.0215" y1="1393.2656" y2="1393.2656"/><line style="stroke:#000000;stroke-width:1;" x1="443" x2="633.0215" y1="1401.2656" y2="1401.2656"/><ellipse cx="453" cy="1414.9141" fill="#FFFFFF" rx="3" ry="3" style="stroke:#000000;stroke-width:1;"/><text fill="#000000" font-family="Verdana" font-size="14" lengthAdjust="spacing" textLength="86.0166" x="460" y="1418.2607">uuid(): UUID</text></g><!--class ModelGenerationService--><g id="elem_ModelGenerationService"><rect codeLine="27" fill="#FFFFFF" height="206.9688" id="ModelGenerationService" rx="2.5" ry="2.5" style="stroke:#000000;stroke-width:1;" width="627.9414" x="770" y="230"/><ellipse cx="994.2827" cy="244" fill="#FFFFFF" rx="9" ry="9" style="stroke:#000000;stroke-width:1;"/><path d="M997.2515,249.6406 Q996.6733,249.9375 996.0327,250.0781 Q995.3921,250.2344 994.689,250.2344 Q992.189,250.2344 990.8608,248.5938 Q989.5483,246.9375 989.5483,243.8125 Q989.5483,240.6875 990.8608,239.0313 Q992.189,237.375 994.689,237.375 Q995.3921,237.375 996.0327,237.5313 Q996.689,237.6875 997.2515,237.9844 L997.2515,240.7031 Q996.6265,240.125 996.0327,239.8594 Q995.439,239.5781 994.814,239.5781 Q993.4702,239.5781 992.7827,240.6563 Q992.0952,241.7188 992.0952,243.8125 Q992.0952,245.9063 992.7827,246.9844 Q993.4702,248.0469 994.814,248.0469 Q995.439,248.0469 996.0327,247.7813 Q996.6265,247.5 997.2515,246.9219 L997.2515,249.6406 Z " fill="#000000"/><text fill="#000000" font-family="Verdana" font-size="14" lengthAdjust="spacing" textLength="171.876" x="1011.7827" y="248.8467">ModelGenerationService</text><line style="stroke:#000000;stroke-width:1;" x1="771" x2="1396.9414" y1="258" y2="258"/><ellipse cx="781" cy="271.6484" fill="none" rx="3" ry="3" style="stroke:#000000;stroke-width:1;"/><text fill="#000000" font-family="Verdana" font-size="14" lengthAdjust="spacing" textLength="250.3457" x="788" y="274.9951">USE_GENERATOR_SERVER: boolean</text><rect fill="none" height="6" style="stroke:#000000;stroke-width:1;" width="6" x="778" y="284.9453"/><text fill="#000000" font-family="Verdana" font-size="14" lengthAdjust="spacing" textLength="398.6445" x="788" y="291.292">operationCanceledManager: OperationCanceledManager</text><rect fill="none" height="6" style="stroke:#000000;stroke-width:1;" width="6" x="778" y="301.2422"/><text fill="#000000" font-family="Verdana" font-size="14" lengthAdjust="spacing" textLength="119.1367" x="788" y="307.5889">timeoutSec: long</text><ellipse cx="781" cy="320.5391" fill="none" rx="3" ry="3" style="stroke:#000000;stroke-width:1;"/><text fill="#000000" font-family="Verdana" font-size="14" lengthAdjust="spacing" textLength="284.5664" x="788" y="323.8857">MODEL_GENERATION_EXECUTOR: String</text><ellipse cx="781" cy="336.8359" fill="none" rx="3" ry="3" style="stroke:#000000;stroke-width:1;"/><text fill="#000000" font-family="Verdana" font-size="14" lengthAdjust="spacing" textLength="158.71" x="788" y="340.1826">SERVICE_NAME: String</text><rect fill="none" height="6" style="stroke:#000000;stroke-width:1;" width="6" x="778" y="350.1328"/><text fill="#000000" font-family="Verdana" font-size="14" lengthAdjust="spacing" textLength="368.04" x="788" y="356.4795">workerProvider: Provider&lt;ModelGenerationWorker&gt;</text><ellipse cx="781" cy="369.4297" fill="none" rx="3" ry="3" style="stroke:#000000;stroke-width:1;"/><text fill="#000000" font-family="Verdana" font-size="14" lengthAdjust="spacing" textLength="354.9902" x="788" y="372.7764">MODEL_GENERATION_TIMEOUT_EXECUTOR: String</text><line style="stroke:#000000;stroke-width:1;" x1="771" x2="1396.9414" y1="380.0781" y2="380.0781"/><ellipse cx="781" cy="393.7266" fill="#FFFFFF" rx="3" ry="3" style="stroke:#000000;stroke-width:1;"/><text fill="#000000" font-family="Verdana" font-size="14" lengthAdjust="spacing" textLength="187.5166" x="788" y="397.0732">ModelGenerationService():</text><ellipse cx="781" cy="410.0234" fill="#FFFFFF" rx="3" ry="3" style="stroke:#000000;stroke-width:1;"/><text fill="#000000" font-family="Verdana" font-size="14" lengthAdjust="spacing" textLength="553.9502" x="788" y="413.3701">generateModel(PushWebDocumentAccess, int): ModelGenerationStartedResult</text><ellipse cx="781" cy="426.3203" fill="#FFFFFF" rx="3" ry="3" style="stroke:#000000;stroke-width:1;"/><text fill="#000000" font-family="Verdana" font-size="14" lengthAdjust="spacing" textLength="603.9414" x="788" y="429.667">cancelModelGeneration(PushWebDocumentAccess): ModelGenerationCancelledResult</text></g><!--class ModelGenerationStartedResult--><g id="elem_ModelGenerationStartedResult"><rect codeLine="39" fill="#FFFFFF" height="105.1563" id="ModelGenerationStartedResult" rx="2.5" ry="2.5" style="stroke:#000000;stroke-width:1;" width="290.7656" x="1197.5" y="711"/><ellipse cx="1231.6698" cy="731.1328" fill="#FFFFFF" rx="9" ry="9" style="stroke:#000000;stroke-width:1;"/><path d="M1235.7792,737.1328 L1228.0604,737.1328 L1228.0604,724.7422 L1235.7792,724.7422 L1235.7792,726.8984 L1230.5135,726.8984 L1230.5135,729.5703 L1235.2792,729.5703 L1235.2792,731.7266 L1230.5135,731.7266 L1230.5135,734.9766 L1235.7792,734.9766 L1235.7792,737.1328 Z " fill="#000000"/><text fill="#000000" font-family="Verdana" font-size="12" font-style="italic" lengthAdjust="spacing" textLength="53.6191" x="1329.4254" y="727.1387">«record»</text><text fill="#000000" font-family="Verdana" font-size="14" lengthAdjust="spacing" textLength="215.7217" x="1248.3742" y="742.9639">ModelGenerationStartedResult</text><line style="stroke:#000000;stroke-width:1;" x1="1198.5" x2="1487.2656" y1="751.2656" y2="751.2656"/><rect fill="none" height="6" style="stroke:#000000;stroke-width:1;" width="6" x="1205.5" y="761.9141"/><text fill="#000000" font-family="Verdana" font-size="14" lengthAdjust="spacing" textLength="75.0928" x="1215.5" y="768.2607">uuid: UUID</text><line style="stroke:#000000;stroke-width:1;" x1="1198.5" x2="1487.2656" y1="775.5625" y2="775.5625"/><ellipse cx="1208.5" cy="789.2109" fill="#FFFFFF" rx="3" ry="3" style="stroke:#000000;stroke-width:1;"/><text fill="#000000" font-family="Verdana" font-size="14" lengthAdjust="spacing" textLength="266.7656" x="1215.5" y="792.5576">ModelGenerationStartedResult(UUID):</text><ellipse cx="1208.5" cy="805.5078" fill="#FFFFFF" rx="3" ry="3" style="stroke:#000000;stroke-width:1;"/><text fill="#000000" font-family="Verdana" font-size="14" lengthAdjust="spacing" textLength="86.0166" x="1215.5" y="808.8545">uuid(): UUID</text></g><!--class ModelGenerationStatusResult--><g id="elem_ModelGenerationStatusResult"><rect codeLine="44" fill="#FFFFFF" height="137.75" id="ModelGenerationStatusResult" rx="2.5" ry="2.5" style="stroke:#000000;stroke-width:1;" width="334.3584" x="371" y="1122.5"/><ellipse cx="430.1128" cy="1142.6328" fill="#FFFFFF" rx="9" ry="9" style="stroke:#000000;stroke-width:1;"/><path d="M434.2222,1148.6328 L426.5034,1148.6328 L426.5034,1136.2422 L434.2222,1136.2422 L434.2222,1138.3984 L428.9565,1138.3984 L428.9565,1141.0703 L433.7222,1141.0703 L433.7222,1143.2266 L428.9565,1143.2266 L428.9565,1146.4766 L434.2222,1146.4766 L434.2222,1148.6328 Z " fill="#000000"/><text fill="#000000" font-family="Verdana" font-size="12" font-style="italic" lengthAdjust="spacing" textLength="53.6191" x="525.1196" y="1138.6387">«record»</text><text fill="#000000" font-family="Verdana" font-size="14" lengthAdjust="spacing" textLength="208.6328" x="447.6128" y="1154.4639">ModelGenerationStatusResult</text><line style="stroke:#000000;stroke-width:1;" x1="372" x2="704.3584" y1="1162.7656" y2="1162.7656"/><rect fill="none" height="6" style="stroke:#000000;stroke-width:1;" width="6" x="379" y="1173.4141"/><text fill="#000000" font-family="Verdana" font-size="14" lengthAdjust="spacing" textLength="75.0928" x="389" y="1179.7607">uuid: UUID</text><rect fill="none" height="6" style="stroke:#000000;stroke-width:1;" width="6" x="379" y="1189.7109"/><text fill="#000000" font-family="Verdana" font-size="14" lengthAdjust="spacing" textLength="93.9668" x="389" y="1196.0576">status: String</text><line style="stroke:#000000;stroke-width:1;" x1="372" x2="704.3584" y1="1203.3594" y2="1203.3594"/><ellipse cx="382" cy="1217.0078" fill="#FFFFFF" rx="3" ry="3" style="stroke:#000000;stroke-width:1;"/><text fill="#000000" font-family="Verdana" font-size="14" lengthAdjust="spacing" textLength="310.3584" x="389" y="1220.3545">ModelGenerationStatusResult(UUID, String):</text><ellipse cx="382" cy="1233.3047" fill="#FFFFFF" rx="3" ry="3" style="stroke:#000000;stroke-width:1;"/><text fill="#000000" font-family="Verdana" font-size="14" lengthAdjust="spacing" textLength="86.0166" x="389" y="1236.6514">uuid(): UUID</text><ellipse cx="382" cy="1249.6016" fill="#FFFFFF" rx="3" ry="3" style="stroke:#000000;stroke-width:1;"/><text fill="#000000" font-family="Verdana" font-size="14" lengthAdjust="spacing" textLength="104.8906" x="389" y="1252.9482">status(): String</text></g><!--class ModelGenerationSuccessResult--><g id="elem_ModelGenerationSuccessResult"><rect codeLine="51" fill="#FFFFFF" height="202.9375" id="ModelGenerationSuccessResult" rx="2.5" ry="2.5" style="stroke:#000000;stroke-width:1;" width="719.2012" x="740.5" y="1090"/><ellipse cx="986.1621" cy="1110.1328" fill="#FFFFFF" rx="9" ry="9" style="stroke:#000000;stroke-width:1;"/><path d="M990.2715,1116.1328 L982.5527,1116.1328 L982.5527,1103.7422 L990.2715,1103.7422 L990.2715,1105.8984 L985.0059,1105.8984 L985.0059,1108.5703 L989.7715,1108.5703 L989.7715,1110.7266 L985.0059,1110.7266 L985.0059,1113.9766 L990.2715,1113.9766 L990.2715,1116.1328 Z " fill="#000000"/><text fill="#000000" font-family="Verdana" font-size="12" font-style="italic" lengthAdjust="spacing" textLength="53.6191" x="1087.041" y="1106.1387">«record»</text><text fill="#000000" font-family="Verdana" font-size="14" lengthAdjust="spacing" textLength="220.377" x="1003.6621" y="1121.9639">ModelGenerationSuccessResult</text><line style="stroke:#000000;stroke-width:1;" x1="741.5" x2="1458.7012" y1="1130.2656" y2="1130.2656"/><rect fill="none" height="6" style="stroke:#000000;stroke-width:1;" width="6" x="748.5" y="1140.9141"/><text fill="#000000" font-family="Verdana" font-size="14" lengthAdjust="spacing" textLength="202.166" x="758.5" y="1147.2607">nodes: List&lt;NodeMetadata&gt;</text><rect fill="none" height="6" style="stroke:#000000;stroke-width:1;" width="6" x="748.5" y="1157.2109"/><text fill="#000000" font-family="Verdana" font-size="14" lengthAdjust="spacing" textLength="75.0928" x="758.5" y="1163.5576">uuid: UUID</text><rect fill="none" height="6" style="stroke:#000000;stroke-width:1;" width="6" x="748.5" y="1173.5078"/><text fill="#000000" font-family="Verdana" font-size="14" lengthAdjust="spacing" textLength="241.9717" x="758.5" y="1179.8545">relations: List&lt;RelationMetadata&gt;</text><rect fill="none" height="6" style="stroke:#000000;stroke-width:1;" width="6" x="748.5" y="1189.8047"/><text fill="#000000" font-family="Verdana" font-size="14" lengthAdjust="spacing" textLength="225.6953" x="758.5" y="1196.1514">partialInterpretation: JsonObject</text><line style="stroke:#000000;stroke-width:1;" x1="741.5" x2="1458.7012" y1="1203.4531" y2="1203.4531"/><ellipse cx="751.5" cy="1217.1016" fill="#FFFFFF" rx="3" ry="3" style="stroke:#000000;stroke-width:1;"/><text fill="#000000" font-family="Verdana" font-size="14" lengthAdjust="spacing" textLength="695.2012" x="758.5" y="1220.4482">ModelGenerationSuccessResult(UUID, List&lt;NodeMetadata&gt;, List&lt;RelationMetadata&gt;, JsonObject):</text><ellipse cx="751.5" cy="1233.3984" fill="#FFFFFF" rx="3" ry="3" style="stroke:#000000;stroke-width:1;"/><text fill="#000000" font-family="Verdana" font-size="14" lengthAdjust="spacing" textLength="236.6191" x="758.5" y="1236.7451">partialInterpretation(): JsonObject</text><ellipse cx="751.5" cy="1249.6953" fill="#FFFFFF" rx="3" ry="3" style="stroke:#000000;stroke-width:1;"/><text fill="#000000" font-family="Verdana" font-size="14" lengthAdjust="spacing" textLength="213.0898" x="758.5" y="1253.042">nodes(): List&lt;NodeMetadata&gt;</text><ellipse cx="751.5" cy="1265.9922" fill="#FFFFFF" rx="3" ry="3" style="stroke:#000000;stroke-width:1;"/><text fill="#000000" font-family="Verdana" font-size="14" lengthAdjust="spacing" textLength="252.8955" x="758.5" y="1269.3389">relations(): List&lt;RelationMetadata&gt;</text><ellipse cx="751.5" cy="1282.2891" fill="#FFFFFF" rx="3" ry="3" style="stroke:#000000;stroke-width:1;"/><text fill="#000000" font-family="Verdana" font-size="14" lengthAdjust="spacing" textLength="86.0166" x="758.5" y="1285.6357">uuid(): UUID</text></g><!--class ModelGenerationWorker--><g id="elem_ModelGenerationWorker"><rect codeLine="62" fill="#FFFFFF" height="532.9063" id="ModelGenerationWorker" rx="2.5" ry="2.5" style="stroke:#000000;stroke-width:1;" width="517.958" x="279" y="497"/><ellipse cx="448.8413" cy="511" fill="#FFFFFF" rx="9" ry="9" style="stroke:#000000;stroke-width:1;"/><path d="M451.8101,516.6406 Q451.2319,516.9375 450.5913,517.0781 Q449.9507,517.2344 449.2476,517.2344 Q446.7476,517.2344 445.4194,515.5938 Q444.1069,513.9375 444.1069,510.8125 Q444.1069,507.6875 445.4194,506.0313 Q446.7476,504.375 449.2476,504.375 Q449.9507,504.375 450.5913,504.5313 Q451.2476,504.6875 451.8101,504.9844 L451.8101,507.7031 Q451.1851,507.125 450.5913,506.8594 Q449.9976,506.5781 449.3726,506.5781 Q448.0288,506.5781 447.3413,507.6563 Q446.6538,508.7188 446.6538,510.8125 Q446.6538,512.9063 447.3413,513.9844 Q448.0288,515.0469 449.3726,515.0469 Q449.9976,515.0469 450.5913,514.7813 Q451.1851,514.5 451.8101,513.9219 L451.8101,516.6406 Z " fill="#000000"/><text fill="#000000" font-family="Verdana" font-size="14" lengthAdjust="spacing" textLength="170.7754" x="466.3413" y="515.8467">ModelGenerationWorker</text><line style="stroke:#000000;stroke-width:1;" x1="280" x2="795.958" y1="525" y2="525"/><rect fill="none" height="6" style="stroke:#000000;stroke-width:1;" width="6" x="287" y="535.6484"/><text fill="#000000" font-family="Verdana" font-size="14" lengthAdjust="spacing" textLength="368.4023" x="297" y="541.9951">partialInterpretation2Json: PartialInterpretation2Json</text><rect fill="none" height="6" style="stroke:#000000;stroke-width:1;" width="6" x="287" y="551.9453"/><text fill="#000000" font-family="Verdana" font-size="14" lengthAdjust="spacing" textLength="131.0381" x="297" y="558.292">timedOut: boolean</text><rect fill="none" height="6" style="stroke:#000000;stroke-width:1;" width="6" x="287" y="568.2422"/><text fill="#000000" font-family="Verdana" font-size="14" lengthAdjust="spacing" textLength="119.1367" x="297" y="574.5889">timeoutSec: long</text><rect fill="none" height="6" style="stroke:#000000;stroke-width:1;" width="6" x="287" y="584.5391"/><text fill="#000000" font-family="Verdana" font-size="14" lengthAdjust="spacing" textLength="265.9385" x="297" y="590.8857">cancellationToken: CancellationToken</text><rect fill="none" height="6" style="stroke:#000000;stroke-width:1;" width="6" x="287" y="600.8359"/><text fill="#000000" font-family="Verdana" font-size="14" lengthAdjust="spacing" textLength="181.9863" x="297" y="607.1826">state: PushWebDocument</text><rect fill="none" height="6" style="stroke:#000000;stroke-width:1;" width="6" x="287" y="617.1328"/><text fill="#000000" font-family="Verdana" font-size="14" lengthAdjust="spacing" textLength="259.1504" x="297" y="623.4795">timeoutFuture: ScheduledFuture&lt;?&gt;</text><rect fill="none" height="6" style="stroke:#000000;stroke-width:1;" width="6" x="287" y="633.4297"/><text fill="#000000" font-family="Verdana" font-size="14" lengthAdjust="spacing" textLength="131.8789" x="297" y="639.7764">cancelled: boolean</text><rect fill="none" height="6" style="stroke:#000000;stroke-width:1;" width="6" x="287" y="649.7266"/><text fill="#000000" font-family="Verdana" font-size="14" lengthAdjust="spacing" textLength="221.5938" x="297" y="656.0732">problemLoader: ProblemLoader</text><rect fill="none" height="6" style="stroke:#000000;stroke-width:1;" width="6" x="287" y="666.0234"/><text fill="#000000" font-family="Verdana" font-size="14" lengthAdjust="spacing" textLength="236.667" x="297" y="672.3701">executorService: ExecutorService</text><rect fill="none" height="6" style="stroke:#000000;stroke-width:1;" width="6" x="287" y="682.3203"/><text fill="#000000" font-family="Verdana" font-size="14" lengthAdjust="spacing" textLength="248.3838" x="297" y="688.667">metadataCreator: MetadataCreator</text><rect fill="none" height="6" style="stroke:#000000;stroke-width:1;" width="6" x="287" y="698.6172"/><text fill="#000000" font-family="Verdana" font-size="14" lengthAdjust="spacing" textLength="75.0928" x="297" y="704.9639">uuid: UUID</text><rect fill="none" height="6" style="stroke:#000000;stroke-width:1;" width="6" x="287" y="714.9141"/><text fill="#000000" font-family="Verdana" font-size="14" lengthAdjust="spacing" textLength="296.2764" x="297" y="721.2607">generatorFactory: ModelGeneratorFactory</text><rect fill="none" height="6" style="stroke:#000000;stroke-width:1;" width="6" x="287" y="731.2109"/><text fill="#000000" font-family="Verdana" font-size="14" lengthAdjust="spacing" textLength="128.249" x="297" y="737.5576">future: Future&lt;?&gt;</text><rect fill="none" height="6" style="stroke:#000000;stroke-width:1;" width="6" x="287" y="747.5078"/><text fill="#000000" font-family="Verdana" font-size="14" lengthAdjust="spacing" textLength="116.7168" x="297" y="753.8545">randomSeed: int</text><rect fill="none" height="6" style="stroke:#000000;stroke-width:1;" width="6" x="287" y="763.8047"/><text fill="#000000" font-family="Verdana" font-size="14" lengthAdjust="spacing" textLength="78.8252" x="297" y="770.1514">text: String</text><rect fill="none" height="6" style="stroke:#000000;stroke-width:1;" width="6" x="287" y="780.1016"/><text fill="#000000" font-family="Verdana" font-size="14" lengthAdjust="spacing" textLength="128.6182" x="297" y="786.4482">lockObject: Object</text><rect fill="none" height="6" style="stroke:#000000;stroke-width:1;" width="6" x="287" y="796.3984"/><text fill="#000000" font-family="Verdana" font-size="14" lengthAdjust="spacing" textLength="87.3428" x="297" y="802.7451">LOG: Logger</text><rect fill="none" height="6" style="stroke:#000000;stroke-width:1;" width="6" x="287" y="812.6953"/><text fill="#000000" font-family="Verdana" font-size="14" lengthAdjust="spacing" textLength="381.7461" x="297" y="819.042">scheduledExecutorService: ScheduledExecutorService</text><rect fill="none" height="6" style="stroke:#000000;stroke-width:1;" width="6" x="287" y="828.9922"/><text fill="#000000" font-family="Verdana" font-size="14" lengthAdjust="spacing" textLength="398.6445" x="297" y="835.3389">operationCanceledManager: OperationCanceledManager</text><line style="stroke:#000000;stroke-width:1;" x1="280" x2="795.958" y1="842.6406" y2="842.6406"/><ellipse cx="290" cy="856.2891" fill="#FFFFFF" rx="3" ry="3" style="stroke:#000000;stroke-width:1;"/><text fill="#000000" font-family="Verdana" font-size="14" lengthAdjust="spacing" textLength="186.416" x="297" y="859.6357">ModelGenerationWorker():</text><ellipse cx="290" cy="872.5859" fill="#FFFFFF" rx="3" ry="3" style="stroke:#000000;stroke-width:1;"/><text fill="#000000" font-family="Verdana" font-size="14" lengthAdjust="spacing" textLength="151.04" x="297" y="875.9326">cancel(boolean): void</text><ellipse cx="290" cy="888.8828" fill="#FFFFFF" rx="3" ry="3" style="stroke:#000000;stroke-width:1;"/><text fill="#000000" font-family="Verdana" font-size="14" lengthAdjust="spacing" textLength="110.3799" x="297" y="892.2295">getUuid(): UUID</text><ellipse cx="290" cy="905.1797" fill="#FFFFFF" rx="3" ry="3" style="stroke:#000000;stroke-width:1;"/><text fill="#000000" font-family="Verdana" font-size="14" lengthAdjust="spacing" textLength="311.7939" x="297" y="908.5264">setState(PushWebDocument, int, long): void</text><ellipse cx="290" cy="921.4766" fill="#FFFFFF" rx="3" ry="3" style="stroke:#000000;stroke-width:1;"/><text fill="#000000" font-family="Verdana" font-size="14" lengthAdjust="spacing" textLength="229.0381" x="297" y="924.8232">doRun(): ModelGenerationResult</text><ellipse cx="290" cy="937.7734" fill="#FFFFFF" rx="3" ry="3" style="stroke:#000000;stroke-width:1;"/><text fill="#000000" font-family="Verdana" font-size="14" lengthAdjust="spacing" textLength="73.2197" x="297" y="941.1201">run(): void</text><ellipse cx="290" cy="954.0703" fill="#FFFFFF" rx="3" ry="3" style="stroke:#000000;stroke-width:1;"/><text fill="#000000" font-family="Verdana" font-size="14" lengthAdjust="spacing" textLength="95.0674" x="297" y="957.417">cancel(): void</text><ellipse cx="290" cy="970.3672" fill="#FFFFFF" rx="3" ry="3" style="stroke:#000000;stroke-width:1;"/><text fill="#000000" font-family="Verdana" font-size="14" lengthAdjust="spacing" textLength="82.3252" x="297" y="973.7139">start(): void</text><rect fill="#FFFFFF" height="6" style="stroke:#000000;stroke-width:1;" width="6" x="287" y="983.6641"/><text fill="#000000" font-family="Verdana" font-size="14" lengthAdjust="spacing" textLength="297.6572" x="297" y="990.0107">notifyResult(ModelGenerationResult): void</text><ellipse cx="290" cy="1002.9609" fill="#FFFFFF" rx="3" ry="3" style="stroke:#000000;stroke-width:1;"/><text fill="#000000" font-family="Verdana" font-size="14" lengthAdjust="spacing" textLength="139.9453" x="297" y="1006.3076">startTimeout(): void</text><ellipse cx="290" cy="1019.2578" fill="#FFFFFF" rx="3" ry="3" style="stroke:#000000;stroke-width:1;"/><text fill="#000000" font-family="Verdana" font-size="14" lengthAdjust="spacing" textLength="493.958" x="297" y="1022.6045">setExecutorServiceProvider(ThreadPoolExecutorServiceProvider): void</text></g><!--class PushServiceDispatcher--><g id="elem_PushServiceDispatcher"><rect codeLine="94" fill="#FFFFFF" height="158.0781" id="PushServiceDispatcher" rx="2.5" ry="2.5" style="stroke:#000000;stroke-width:1;" width="548.918" x="809.5" y="12"/><ellipse cx="999.668" cy="26" fill="#FFFFFF" rx="9" ry="9" style="stroke:#000000;stroke-width:1;"/><path d="M1002.6367,31.6406 Q1002.0586,31.9375 1001.418,32.0781 Q1000.7773,32.2344 1000.0742,32.2344 Q997.5742,32.2344 996.2461,30.5938 Q994.9336,28.9375 994.9336,25.8125 Q994.9336,22.6875 996.2461,21.0313 Q997.5742,19.375 1000.0742,19.375 Q1000.7773,19.375 1001.418,19.5313 Q1002.0742,19.6875 1002.6367,19.9844 L1002.6367,22.7031 Q1002.0117,22.125 1001.418,21.8594 Q1000.8242,21.5781 1000.1992,21.5781 Q998.8555,21.5781 998.168,22.6563 Q997.4805,23.7188 997.4805,25.8125 Q997.4805,27.9063 998.168,28.9844 Q998.8555,30.0469 1000.1992,30.0469 Q1000.8242,30.0469 1001.418,29.7813 Q1002.0117,29.5 1002.6367,28.9219 L1002.6367,31.6406 Z " fill="#000000"/><text fill="#000000" font-family="Verdana" font-size="14" lengthAdjust="spacing" textLength="161.082" x="1017.168" y="30.8467">PushServiceDispatcher</text><line style="stroke:#000000;stroke-width:1;" x1="810.5" x2="1357.418" y1="40" y2="40"/><rect fill="none" height="6" style="stroke:#000000;stroke-width:1;" width="6" x="817.5" y="50.6484"/><text fill="#000000" font-family="Verdana" font-size="14" lengthAdjust="spacing" textLength="256.9766" x="827.5" y="56.9951">semanticsService: SemanticsService</text><rect fill="none" height="6" style="stroke:#000000;stroke-width:1;" width="6" x="817.5" y="66.9453"/><text fill="#000000" font-family="Verdana" font-size="14" lengthAdjust="spacing" textLength="354.4775" x="827.5" y="73.292">modelGenerationService: ModelGenerationService</text><line style="stroke:#000000;stroke-width:1;" x1="810.5" x2="1357.418" y1="80.5938" y2="80.5938"/><ellipse cx="820.5" cy="94.2422" fill="#FFFFFF" rx="3" ry="3" style="stroke:#000000;stroke-width:1;"/><text fill="#000000" font-family="Verdana" font-size="14" lengthAdjust="spacing" textLength="176.7227" x="827.5" y="97.5889">PushServiceDispatcher():</text><polygon fill="#FFFFFF" points="820.5,105.5391,824.5,109.5391,820.5,113.5391,816.5,109.5391" style="stroke:#000000;stroke-width:1;"/><text fill="#000000" font-family="Verdana" font-size="14" lengthAdjust="spacing" textLength="475.4189" x="827.5" y="113.8857">createServiceDescriptor(String, IServiceContext): ServiceDescriptor</text><polygon fill="#FFFFFF" points="820.5,121.8359,824.5,125.8359,820.5,129.8359,816.5,125.8359" style="stroke:#000000;stroke-width:1;"/><text fill="#000000" font-family="Verdana" font-size="14" lengthAdjust="spacing" textLength="450.3857" x="827.5" y="130.1826">getModelGenerationService(IServiceContext): ServiceDescriptor</text><polygon fill="#FFFFFF" points="820.5,138.1328,824.5,142.1328,820.5,146.1328,816.5,142.1328" style="stroke:#000000;stroke-width:1;"/><text fill="#000000" font-family="Verdana" font-size="14" lengthAdjust="spacing" textLength="524.918" x="827.5" y="146.4795">getFullTextDocument(String, String, IServiceContext): XtextWebDocument</text><polygon fill="#FFFFFF" points="820.5,154.4297,824.5,158.4297,820.5,162.4297,816.5,158.4297" style="stroke:#000000;stroke-width:1;"/><text fill="#000000" font-family="Verdana" font-size="14" lengthAdjust="spacing" textLength="461.7334" x="827.5" y="162.7764">registerPreComputedServices(PrecomputedServiceRegistry): void</text></g><!--link ModelGenerationErrorResult to ModelGenerationResult--><g id="link_ModelGenerationErrorResult_ModelGenerationResult"><path codeLine="104" d="M174,1260.65 C174,1317.93 174,1390 174,1390 C174,1390 316.04,1390 423.89,1390 " fill="none" id="ModelGenerationErrorResult-to-ModelGenerationResult" style="stroke:#008200;stroke-width:1;stroke-dasharray:7.0,7.0;"/><polygon fill="none" points="441.89,1390,423.89,1384,423.89,1396,441.89,1390" style="stroke:#008200;stroke-width:1;"/></g><!--link ModelGenerationManager to ModelGenerationWorker--><g id="link_ModelGenerationManager_ModelGenerationWorker"><path codeLine="105" d="M506.75,424.62 C506.75,449.48 506.75,460.45 506.75,490.89 " fill="none" id="ModelGenerationManager-ModelGenerationWorker" style="stroke:#595959;stroke-width:1;"/><polygon fill="#595959" points="506.75,412.62,502.75,418.62,506.75,424.62,510.75,418.62,506.75,412.62" style="stroke:#595959;stroke-width:1;"/><polygon fill="#595959" points="506.75,496.89,510.75,487.89,506.75,491.89,502.75,487.89,506.75,496.89" style="stroke:#595959;stroke-width:1;"/><text fill="#000000" font-family="Verdana" font-size="13" lengthAdjust="spacing" textLength="8.271" x="506.2179" y="432.6747">1</text><text fill="#000000" font-family="Verdana" font-size="13" lengthAdjust="spacing" textLength="44.8018" x="461.1817" y="470.6019">worker</text><text fill="#000000" font-family="Verdana" font-size="13" lengthAdjust="spacing" textLength="8.271" x="479.447" y="485.7347">1</text></g><!--link ModelGenerationService to ModelGenerationCancelledResult--><g id="link_ModelGenerationService_ModelGenerationCancelledResult"><path codeLine="106" d="M1026,437.04 C1026,530.73 1026,657.45 1026,720.92 " fill="none" id="ModelGenerationService-to-ModelGenerationCancelledResult" style="stroke:#595959;stroke-width:1;stroke-dasharray:7.0,7.0;"/><polygon fill="#595959" points="1026,726.92,1030,717.92,1026,721.92,1022,717.92,1026,726.92" style="stroke:#595959;stroke-width:1;"/><text fill="#000000" font-family="Verdana" font-size="13" lengthAdjust="spacing" textLength="41.5518" x="984" y="578.0469">create</text></g><!--link ModelGenerationService to ModelGenerationStartedResult--><g id="link_ModelGenerationService_ModelGenerationStartedResult"><path codeLine="107" d="M1297.75,437.04 C1297.75,523.4 1297.75,636.92 1297.75,704.8 " fill="none" id="ModelGenerationService-to-ModelGenerationStartedResult" style="stroke:#595959;stroke-width:1;stroke-dasharray:7.0,7.0;"/><polygon fill="#595959" points="1297.75,710.8,1301.75,701.8,1297.75,705.8,1293.75,701.8,1297.75,710.8" style="stroke:#595959;stroke-width:1;"/><text fill="#000000" font-family="Verdana" font-size="13" lengthAdjust="spacing" textLength="41.5518" x="1255.75" y="569.9869">create</text></g><!--link ModelGenerationStatusResult to ModelGenerationResult--><g id="link_ModelGenerationStatusResult_ModelGenerationResult"><path codeLine="108" d="M506,1260.75 C506,1291.75 506,1309.05 506,1334.83 " fill="none" id="ModelGenerationStatusResult-to-ModelGenerationResult" style="stroke:#008200;stroke-width:1;stroke-dasharray:7.0,7.0;"/><polygon fill="none" points="506,1352.83,512,1334.83,500,1334.83,506,1352.83" style="stroke:#008200;stroke-width:1;"/></g><!--link ModelGenerationSuccessResult to ModelGenerationResult--><g id="link_ModelGenerationSuccessResult_ModelGenerationResult"><path codeLine="109" d="M740.25,1277 C645.9,1277 570,1277 570,1277 C570,1277 570,1302.13 570,1334.97 " fill="none" id="ModelGenerationSuccessResult-to-ModelGenerationResult" style="stroke:#008200;stroke-width:1;stroke-dasharray:7.0,7.0;"/><polygon fill="none" points="570,1352.97,576,1334.97,564,1334.97,570,1352.97" style="stroke:#008200;stroke-width:1;"/></g><!--link ModelGenerationWorker to ModelGenerationErrorResult--><g id="link_ModelGenerationWorker_ModelGenerationErrorResult"><path codeLine="110" d="M307.5,1030.3 C307.5,1064.03 307.5,1089.89 307.5,1116.24 " fill="none" id="ModelGenerationWorker-to-ModelGenerationErrorResult" style="stroke:#595959;stroke-width:1;stroke-dasharray:7.0,7.0;"/><polygon fill="#595959" points="307.5,1122.24,311.5,1113.24,307.5,1117.24,303.5,1113.24,307.5,1122.24" style="stroke:#595959;stroke-width:1;"/><text fill="#000000" font-family="Verdana" font-size="13" lengthAdjust="spacing" textLength="41.5518" x="265.5" y="1072.3369">create</text></g><!--link ModelGenerationWorker to ModelGenerationStatusResult--><g id="link_ModelGenerationWorker_ModelGenerationStatusResult"><path codeLine="111" d="M538,1030.3 C538,1064.03 538,1089.89 538,1116.24 " fill="none" id="ModelGenerationWorker-to-ModelGenerationStatusResult" style="stroke:#595959;stroke-width:1;stroke-dasharray:7.0,7.0;"/><polygon fill="#595959" points="538,1122.24,542,1113.24,538,1117.24,534,1113.24,538,1122.24" style="stroke:#595959;stroke-width:1;"/><text fill="#000000" font-family="Verdana" font-size="13" lengthAdjust="spacing" textLength="41.5518" x="496" y="1072.3369">create</text></g><!--link ModelGenerationWorker to ModelGenerationSuccessResult--><g id="link_ModelGenerationWorker_ModelGenerationSuccessResult"><path codeLine="112" d="M768.75,1030.3 C768.75,1051.15 768.75,1065.28 768.75,1083.84 " fill="none" id="ModelGenerationWorker-to-ModelGenerationSuccessResult" style="stroke:#595959;stroke-width:1;stroke-dasharray:7.0,7.0;"/><polygon fill="#595959" points="768.75,1089.84,772.75,1080.84,768.75,1084.84,764.75,1080.84,768.75,1089.84" style="stroke:#595959;stroke-width:1;"/><text fill="#000000" font-family="Verdana" font-size="13" lengthAdjust="spacing" textLength="41.5518" x="726.75" y="1056.1369">create</text></g><!--link PushServiceDispatcher to ModelGenerationService--><g id="link_PushServiceDispatcher_ModelGenerationService"><path codeLine="113" d="M1084,182.07 C1084,201.14 1084,203.81 1084,223.82 " fill="none" id="PushServiceDispatcher-ModelGenerationService" style="stroke:#595959;stroke-width:1;"/><polygon fill="#595959" points="1084,170.07,1080,176.07,1084,182.07,1088,176.07,1084,170.07" style="stroke:#595959;stroke-width:1;"/><polygon fill="#595959" points="1084,229.82,1088,220.82,1084,224.82,1080,220.82,1084,229.82" style="stroke:#595959;stroke-width:1;"/><text fill="#000000" font-family="Verdana" font-size="13" lengthAdjust="spacing" textLength="8.271" x="1075.6475" y="190.1201">1</text><text fill="#000000" font-family="Verdana" font-size="13" lengthAdjust="spacing" textLength="161.0464" x="917.5949" y="203.9231">modelGenerationService</text><text fill="#000000" font-family="Verdana" font-size="13" lengthAdjust="spacing" textLength="8.271" x="993.9826" y="219.0559">1</text></g><!--link ModelGenerationService to ModelGenerationWorker--><g id="link_ModelGenerationService_ModelGenerationWorker"><path codeLine="114" d="M783.5,449.04 C783.5,467.68 783.5,469.86 783.5,490.74 " fill="none" id="ModelGenerationService-ModelGenerationWorker" style="stroke:#595959;stroke-width:1;"/><polygon fill="#595959" points="783.5,437.04,779.5,443.04,783.5,449.04,787.5,443.04,783.5,437.04" style="stroke:#595959;stroke-width:1;"/><polygon fill="#595959" points="783.5,496.74,787.5,487.74,783.5,491.74,779.5,487.74,783.5,496.74" style="stroke:#595959;stroke-width:1;"/><text fill="#000000" font-family="Verdana" font-size="13" lengthAdjust="spacing" textLength="41.5518" x="784.5" y="462.9569">create</text><text fill="#000000" font-family="Verdana" font-size="13" lengthAdjust="spacing" textLength="8.271" x="754.1014" y="456.9202">1</text><text fill="#000000" font-family="Verdana" font-size="13" lengthAdjust="spacing" textLength="98.8394" x="691.3467" y="470.4475">workerProvider</text><text fill="#000000" font-family="Verdana" font-size="13" lengthAdjust="spacing" textLength="6.5" x="737.5164" y="485.5803">*</text></g><!--SRC=[jLTjRo8t4FxEht395tA0b9vKgKM8AYARY2g4Y9VUIRrhP7OdiCsoHhOtFLIbVwW_eT_kbtNizIvhupsuKyf9oMNyU6OyByyCtyarR81i4ngd3ScsH3AoP5Ao3ObY3g6CMTeGJt6wfPnkI1Ad87TR88pBDMiq89Mnt94nYo2vWHGuLHU6D0qXII2QWiWIIVfzWgeOZyXWGFvg4D8-SgDrtYEDbnhj0UUCdwovWcuj5gEh3fb97gShPO6GBW5rtZD2BScoEEeHXTNwD40vL4BQ6g946lJI21CgX6juJ5Ew0kxtoXos2Y-YM6oP0BIxP2m1ccffmiAdoV8Fp4AFvB-r-4_6dm1zTdI-qs94_4q4o4jCtJDu8Islj4Fo98pIA0wfPFoywaoRXFfKUVpCuaYBZDUbxAKHfnBu8mt1TMwVhpsaJDafuPm1VuxnaZUSvj24iqqMi-3X9hWBffVpoVHX5an_3QPsQDdMgZo8J4Omq3Kd-fgCDy0oEOEmXzanrJ2UN0MtXRtHvEuXU1yC5sZPgXdbnMWOFDnTZWEhtl9qtdFs74VAWU9_VM-Q1dwJyz4uc2pcVjEhN4TU3QtxJApVmVAAXTa6E-mo3468ZihB-K5DpIJbikZAIXauCB_EGtLEczUsk6NsX2QtyBhDYyPocjcfj5hhCXDVOxo4Uod6yg5BXCRNyuaIv9WAwzJwckbGd-vi5M-ylOs5xDyXRWoIHbJIWP5D8SdPQY__HR0qfwBYTIbUnDSSAl6zdHkDnOK32ng5iqR659a8cMBByKX1UXNR-cLUb0gPWzCEAhdNnVRUfnBZy-eqbifxr1zwGxv5tBpklrM-8mNKdfKi54qoQLEQXvkwfbtpvypP4w3oeIiggnBGijt8LSNNcSmuGcRX6g8CcpWNz7yUL2svCspBsJA1pIsZ1Rdj_ym7y2S8CnmtXiDx9B056hGncHXoKAC9YSKM-6hDi1xZrpJ4dpkRZKgnnZwQjzbFuZIDs6O6warn4Gpu92twhXdIjvCRh2QsAYQ7AA8MkE-TrPny-vmgXxL9H7Lchq0k3jW6f28nS6bS3uMEBYPhxBDffXlDE-Fpdie1vHNFyY0KPrSaYaba_BWprEJLVN1_dfUchHYa4ybYehRcQooNw1wZKeFORp9vUwk06CWLBZjKOgwAzlQUbUqjO4EHiKEnpxCZoGlRkyZqQXOSl796GbNoK5W64V9uYozfvJNP8IDpD6IfAbOrGroireELKBD6VOM6won9veWfIgRqejwRz-gtpJ5dIC8hP5wr1Y5oiyrmcfkBedMlPfebcseqt-tJrVZ2bmJzwVvsTd7nuzkBYqv41JRSn-xlf6P9BJ-DcfM- -3I_Rv8tgFY7dzI_ZluIzR4x8CryfVkGuhb_GDIQADRSyhDNN_Wz8CU-R_L8y_C_UPby_hVvAYRiZOmSCr7Te5uh-lQgyqfAtNoS50otkBuSZ6youKRm_p3XnDCnuQU-uxNlPpHVBzY5UBHCZtHRGU4VqZTDqlG6gEcyyJy0]--></g></svg>